<?xml version="1.0" encoding="UTF-8" standalone="no"?>
<!DOCTYPE svg PUBLIC "-//W3C//DTD SVG 1.1//EN" "http://www.w3.org/Graphics/SVG/1.1/DTD/svg11.dtd">
<svg width="100%" height="100%" viewBox="0 0 835 848" version="1.1" xmlns="http://www.w3.org/2000/svg" xmlns:xlink="http://www.w3.org/1999/xlink" xml:space="preserve" xmlns:serif="http://www.serif.com/" style="fill-rule:evenodd;clip-rule:evenodd;stroke-linecap:round;stroke-linejoin:round;stroke-miterlimit:1.5;">
    <g transform="matrix(1,0,0,1,-30.7179,-83.8153)">
        <g transform="matrix(1,0,0,1,8.86523,30.6245)">
            <g transform="matrix(17.0232,0,0,17.0232,-13428.1,-12554.7)">
                <rect x="819.584" y="774.54" width="3.5" height="13.342" style="fill:rgb(250,250,250);fill-rule:nonzero;"/>
            </g>
            <g transform="matrix(17.0232,0,0,17.0232,-13428.1,-12554.7)">
                <path d="M821.116,784.564C825.161,784.618 829.17,785.452 832.943,786.899C832.943,786.899 833.91,787.27 834.15,788.112C834.449,789.161 833.755,790.291 832.474,790.342L809.783,790.436C808.841,790.407 808.696,790.112 808.455,789.835C806.197,787.24 814.681,784.529 821.116,784.564Z" style="fill:rgb(250,250,250);fill-rule:nonzero;"/>
            </g>
            <g transform="matrix(-30.5435,-3.7405e-15,2.40467e-15,-19.6356,25345,15453.3)">
                <path d="M802.686,773.487C802.232,773.398 802.233,773.275 802.102,773.085C801.74,772.559 801.638,771.796 802.01,771.019L810.915,753.94C811.319,753.23 811.954,753.103 812.43,753.94L821.336,771.019C821.602,771.576 821.565,771.768 821.551,772.08C821.517,772.848 821.2,773.452 820.578,773.492L802.768,773.492C802.74,773.491 802.713,773.489 802.686,773.487ZM818.531,770.458L811.673,757.305L804.814,770.458C809.387,770.458 813.959,770.458 818.531,770.458Z" style="fill:rgb(250,250,250);fill-rule:nonzero;"/>
            </g>
            <g transform="matrix(-30.5435,-3.7405e-15,2.40467e-15,-19.6356,25345,15453.3)">
                <path d="M802.686,773.487C802.232,773.398 802.233,773.275 802.102,773.085C801.74,772.559 801.638,771.796 802.01,771.019L810.915,753.94C811.319,753.23 811.954,753.103 812.43,753.94L821.336,771.019C821.602,771.576 821.565,771.768 821.551,772.08C821.517,772.848 821.2,773.452 820.578,773.492L802.768,773.492C802.74,773.491 802.713,773.489 802.686,773.487ZM818.531,770.458L811.673,757.305L804.814,770.458C809.387,770.458 813.959,770.458 818.531,770.458Z" style="fill:rgb(250,250,250);fill-rule:nonzero;"/>
            </g>
            <g transform="matrix(17.0232,0,0,17.0232,-13865,-12247.4)">
                <clipPath id="_clip1">
                    <path d="M837.286,744.515C835.705,745.592 833.794,746.222 831.738,746.222C826.29,746.222 821.866,741.798 821.866,736.349C821.866,730.901 826.29,726.477 831.738,726.477C837.187,726.477 841.611,730.901 841.611,736.349C841.611,736.497 841.608,736.644 841.601,736.79L831.02,736.79L837.286,744.515Z"/>
                </clipPath>
                <g clip-path="url(#_clip1)">
                    <g transform="matrix(0.866025,-0.5,0.5,0.866025,-238.875,494.473)">
                        <path d="M805.946,729.286L805.946,744.925" style="fill:none;stroke:rgb(250,250,250);stroke-width:1px;"/>
                    </g>
                    <g transform="matrix(-0.207912,-0.978148,0.978148,-0.207912,270.476,1679.84)">
                        <path d="M805.946,729.286L805.946,744.925" style="fill:none;stroke:rgb(250,250,250);stroke-width:1px;"/>
                    </g>
                    <g transform="matrix(-0.994522,-0.104528,0.104528,-0.994522,1555.22,1561.71)">
                        <path d="M805.946,729.286L805.946,744.925" style="fill:none;stroke:rgb(250,250,250);stroke-width:1px;"/>
                    </g>
                    <g transform="matrix(-0.406737,0.913545,-0.913545,-0.406737,1839.89,303.344)">
                        <path d="M805.946,729.286L805.946,744.925" style="fill:none;stroke:rgb(250,250,250);stroke-width:1px;"/>
                    </g>
                    <g transform="matrix(0.743145,0.669131,-0.669131,0.743145,731.075,-356.247)">
                        <path d="M805.946,729.286L805.946,744.925" style="fill:none;stroke:rgb(250,250,250);stroke-width:1px;"/>
                    </g>
                </g>
            </g>
            <g transform="matrix(17.0232,0,0,17.0232,-13428.1,-12554.7)">
                <path d="M806.223,742.778C812.398,742.895 817.867,748.349 817.69,754.788C817.69,754.788 817.458,756.539 815.937,756.59L809.028,756.59C809.028,756.59 813.051,761.555 813.051,761.555C813.483,762.213 813.384,762.351 813.369,762.65C813.182,766.5 803.229,767.744 798.056,762.811C791.699,756.749 795.222,743.115 805.775,742.781C805.924,742.778 806.074,742.777 806.223,742.778ZM805.968,746.278C799.349,746.403 794.791,756.58 801.535,761.135C803.649,762.563 806.445,762.902 808.857,762.032C808.857,762.032 803.927,755.85 803.927,755.85C803.465,755.149 803.581,754.956 803.617,754.642C803.715,753.781 804.327,753.124 805.356,753.09L814.091,753.09C813.482,749.268 810.039,746.252 805.968,746.278Z" style="fill:rgb(250,250,250);fill-rule:nonzero;"/>
            </g>
        </g>
    </g>
</svg>
